# xmcd
#
# Track frame offsets:
#	210
#	20670
#	38953
#	56514
#	70789
#	87015
#	102883
#	120829
#	137926
#	152905
#	166361
#	183400
#	196742
#	215513
#	233542
#	255520
#	272715
#
# Disc length: 3832 seconds
#
# Revision: 1
# Processed by: cddbd v1.5.2PL0 Copyright (c) Steve Scherf et al.
# Submitted via: audiograbber 1.80
#
DISCID=e10ef611
DTITLE=Sister Shirley Sydnor and Erik Trauner - I'll Fly Away
DYEAR=1900
DGENRE=
TTITLE0=I Want Jesus To Walk With Me
TTITLE1=Motherless Children  
TTITLE2=I'll Fly Away
TTITLE3=What Do You Think About Jesus (Take 1) 
TTITLE4=If I Couldn't Say A Word
TTITLE5=Glory, Glory, Hallelujah
TTITLE6=Goin Over The Hill
TTITLE7=Shirley's Heavenly Dream (instr.)
TTITLE8=Shine On Me
TTITLE9=Keep Your Lamp Trimmed And Burnin'  
TTITLE10=Take Your Burdens To The Lord
TTITLE11=You Got To Move
TTITLE12=Jesus Is On The Mainline
TTITLE13=Do Lord Remember Me
TTITLE14=Just A Closer Walk With Thee
TTITLE15=If It Wasn't For The Lord
TTITLE16=What Do You Think About Jesus (Take 2)
EXTD=
EXTT0=
EXTT1=
EXTT2=
EXTT3=
EXTT4=
EXTT5=
EXTT6=
EXTT7=
EXTT8=
EXTT9=
EXTT10=
EXTT11=
EXTT12=
EXTT13=
EXTT14=
EXTT15=
EXTT16=
PLAYORDER=
